<svg xmlns="http://www.w3.org/2000/svg" version="1.1" xmlns:xlink="http://www.w3.org/1999/xlink" xmlns:svgjs="http://svgjs.dev/svgjs" viewBox="0 0 1920 1080" style="overflow: hidden; height: 85vh;" class="overflow-hidden rounded-md drop-shadow-lg transition duration-300"><rect width="1920" height="1080" fill="#e4e3ea"/><g clip-path="url(&quot;#SvgjsClipPath1052&quot;)"><g transform="matrix(0.16004906610407552,1.1388082790528058,-1.1388082790528058,0.16004906610407552,1408.4135311127914,-622.1982259482797)"><path d="M0,-1080C-2.2269085274698597,-977.1576307961711,-19.440885715234298,-686.4901428755868,-13.361451164819158,-462.9457847770265C-7.282016614404019,-239.4014266784663,39.359601943491285,35.514754612382035,36.476607302490834,261.26614859136146C33.59361266149038,487.0175425703409,-28.82302461868647,680.0552006684246,-30.659419010821864,891.5625790968501C-32.49581340295726,1103.0699575252756,20.34833778120816,1318.9041823447226,25.45824094967847,1530.3104191619143C30.56814411814878,1741.716655979106,4.243040158279745,2055.0517365269857,0,2160L 1920 2160 L 1920 -1080 Z" fill="url(&quot;#SvgjsLinearGradient1048&quot;)"/><path d="M480,-1080C482.1000080030793,-998.6239801728052,492.73545705759636,-770.6927312464154,492.6000480184759,-591.7438810368316C492.4646389793554,-412.79503082724773,489.69185042337557,-203.71756741400378,479.18754576527715,-6.306898742497111C468.68324110717873,191.10376992900956,429.69065338376873,418.6314351037929,429.5742200698854,592.7201309922085C429.4577867560021,766.8088268806241,473.32816160306203,868.5950667529116,478.4889458819772,1038.2252765879964C483.6497301608924,1207.8554864230812,460.28708339037263,1423.5389361007165,460.5389257433764,1610.501390002717C460.7907680963802,1797.4638439047176,476.7564876238961,2068.4168983337863,480,2160L 1920 2160 L 1920 -1080 Z" fill="url(&quot;#SvgjsLinearGradient1049&quot;)"/><path d="M960,-1080C965.7862298430653,-985.3573634042235,991.5599291053285,-697.7450761617259,994.7173790583912,-512.1441804253411C997.8748290114539,-326.5432846889563,978.5798734404005,-143.66965158561862,978.9446997183763,33.60537441830894C979.3095259963521,210.8804004222365,1004.3715384678438,381.52939338633587,996.9063367262461,551.5059755982243C989.4411349846483,721.4825578101127,934.5389845685359,876.5087484717743,934.1534892687896,1053.464867689639C933.7679939690433,1230.4209869075037,990.2856131392333,1428.8201688536856,994.5933649277683,1613.2426909054125C998.9011167163034,1797.6652129571394,965.7655608212947,2068.8737818175687,960,2160L 1920 2160 L 1920 -1080 Z" fill="url(&quot;#SvgjsLinearGradient1050&quot;)"/><path d="M1440,-1080C1432.5681040723316,-1002.2355343472409,1385.6623772485748,-764.9915970962461,1395.40862443399,-613.4132060834456C1405.1548716194054,-461.83481507064516,1495.2762087780252,-331.4659530313959,1498.477483112492,-170.52965392319746C1501.678757446959,-9.593354814999032,1420.6004015977887,197.19394472547057,1414.6162704407911,352.2045885657448C1408.6321392837935,507.215232406019,1468.8939626810638,615.3317202311553,1462.5726961705068,759.5342091184481C1456.2514296599497,903.7366980057409,1386.0013031941287,1057.5274189750994,1376.6886713774486,1217.419521889502C1367.3760395607685,1377.3116248039046,1396.1450171666681,1561.7900802531137,1406.6969052704267,1718.8868266048635C1417.2487933741852,1875.9835729566132,1434.4494842117379,2086.4811377674773,1440,2160L 1920 2160 L 1920 -1080 Z" fill="url(&quot;#SvgjsLinearGradient1051&quot;)"/></g></g><defs><linearGradient x1="0.1" y1="0" x2="0" y2="1" id="SvgjsLinearGradient1048"><stop stop-color="#e4e3ea" offset="0"/><stop stop-color="#e3e3ea" offset="0"/></linearGradient><linearGradient x1="0.1" y1="0" x2="0" y2="1" id="SvgjsLinearGradient1049"><stop stop-color="#ebebf0" offset="0"/><stop stop-color="#ebecf0" offset="0.25"/></linearGradient><linearGradient x1="0.1" y1="0" x2="0" y2="1" id="SvgjsLinearGradient1050"><stop stop-color="#f3f2f6" offset="0"/><stop stop-color="#f2f2f6" offset="0.5"/></linearGradient><linearGradient x1="0.1" y1="0" x2="0" y2="1" id="SvgjsLinearGradient1051"><stop stop-color="#fafafb" offset="0"/><stop stop-color="#fafafb" offset="0.75"/></linearGradient><clipPath id="SvgjsClipPath1052"><rect width="1920" height="1080"/></clipPath></defs></svg>