<svg xmlns="http://www.w3.org/2000/svg" version="1.1" xmlns:xlink="http://www.w3.org/1999/xlink" xmlns:svgjs="http://svgjs.dev/svgjs" viewBox="0 0 1920 1080" style="overflow: hidden; height: 85vh;" class="overflow-hidden rounded-md drop-shadow-lg transition duration-300"><rect width="1920" height="1080" fill="#f7d7b5"/><g clip-path="url(&quot;#SvgjsClipPath1097&quot;)"><g transform="matrix(7.04171909509728e-17,1.15,-1.15,7.04171909509728e-17,1550.8142204284668,-529.2863534927367)"><path d="M0,-1080C-7.537686775818922,-962.7374940586421,-46.550825831562115,-582.525436901121,-45.22612065491353,-376.42496435185296C-43.901415478264944,-170.32449180258493,10.455454698544088,-50.1181447951443,7.948231059891526,156.60283529560823C5.4410074212389645,363.32381538636076,-63.37592949824102,637.9158929927896,-60.2694624868289,863.9009161926624C-57.16299547541678,1089.8859393925352,16.542122713892773,1296.4964605269556,26.587033128364254,1512.5129744948451C36.631943542835735,1728.5294884627347,4.431172188060709,2052.085495749141,0,2160L 1920 2160 L 1920 -1080 Z" fill="url(&quot;#SvgjsLinearGradient1088&quot;)"/><path d="M213.33333333333331,-1080C215.88888180839297,-982.2055668821359,225.3613164323595,-668.7529559089896,228.6666241836913,-493.23340129281576C231.97193193502312,-317.7138466766419,238.06276787657353,-194.66717683330523,233.16517984132417,-26.882672302956905C228.26759180607482,140.90183222739142,202.55059729136102,332.2005409011016,199.28109597219517,513.4736258892742C196.01159465302933,694.7467108774468,219.79390917493657,885.1322521310027,213.54817192632916,1060.7558376260786C207.30243467772175,1236.3794231211543,161.84247891271664,1384.0077784640757,161.80667248055067,1567.2151388597292C161.7708660483847,1750.4224992553827,204.7455565245362,2061.202523143288,213.33333333333331,2160L 1920 2160 L 1920 -1080 Z" fill="url(&quot;#SvgjsLinearGradient1089&quot;)"/><path d="M426.66666666666663,-1080C416.1882207207798,-994.3131835018733,363.6400161300795,-752.0102122003565,363.7959909913455,-565.8791010112396C363.95196585261147,-379.7479898221228,426.3704730135374,-141.08619327446743,427.60251583426236,36.786667134701105C428.83455865498735,214.65952754386964,365.67236073399715,317.71298851202573,371.1882479156955,501.3580614437716C376.7041350973939,685.0031343755174,443.70311953468376,948.4835446301853,460.6978389244524,1138.657104725176C477.69255831422106,1328.8306648201667,478.82842629727173,1472.1756061345784,473.15656425430745,1642.3994220137158C467.4847022113432,1812.6232378928532,434.4149829312734,2073.733237002286,426.66666666666663,2160L 1920 2160 L 1920 -1080 Z" fill="url(&quot;#SvgjsLinearGradient1090&quot;)"/><path d="M640,-1080C642.8830221960071,-986.2514738586793,664.8090224306566,-692.3914796564316,657.2981331760429,-517.5088431520762C649.7872439214293,-342.6262066477209,588.4568732978222,-198.5591187405282,594.9346644723184,-30.70418097386795C601.4124556468147,137.1507567927923,689.7665586135952,312.19089886850384,696.1648802230205,489.62078344788523C702.5632018324459,667.0506680272666,650.5867049068606,845.9567004787197,633.3245941288706,1033.8751265024202C616.0624833508805,1221.793552526121,591.4796479098915,1429.4438606738256,592.5922155550797,1617.1313395900888C593.704783200268,1804.818818506352,632.0987025925133,2069.5218899316815,640,2160L 1920 2160 L 1920 -1080 Z" fill="url(&quot;#SvgjsLinearGradient1091&quot;)"/><path d="M853.3333333333333,-1080C857.4597359636741,-971.2223778322359,885.1636178136584,-640.9986493076967,878.0917491153787,-427.3342669934151C871.0198804170989,-213.66988467913345,808.0287816321938,-17.026542918640843,810.9021211436545,201.98629388568986C813.7754606551152,420.9991306900206,898.114126201254,659.5977863173031,895.3317861841425,886.742753832569C892.5494461670311,1113.887721347835,801.2078231827875,1352.6465579493802,794.2080810409859,1564.8560989772852C787.2083388991844,1777.0656400051903,843.479124617942,2060.8093498295475,853.3333333333333,2160L 1920 2160 L 1920 -1080 Z" fill="url(&quot;#SvgjsLinearGradient1092&quot;)"/><path d="M1066.6666666666667,-1080C1067.6184428200038,-1004.1705307275821,1075.541934900429,-765.6572976217619,1072.3773235866893,-625.0231843654924C1069.2127122729496,-484.38907110922287,1057.5239086093,-353.36025339231867,1047.6789987842283,-236.195320462383C1037.8340889591566,-119.0303875324473,1012.710932473535,-46.96854027308217,1013.3078646362594,77.9664132141217C1013.9047967989839,202.90136670132557,1052.1204281378891,363.20698860491507,1051.260591760575,513.4144004608402C1050.4007553832607,663.6218123167653,997.3531928449834,838.8886606232081,1008.1488463723744,979.2108843496726C1018.9444998997653,1119.533108076137,1107.0983582696613,1225.2508267719104,1116.034512924921,1355.3477428196268C1124.9706675801808,1485.4446588673432,1069.993748680308,1625.683671105908,1061.7657743039324,1759.7923806359702C1053.5377999275568,1893.9010901660324,1065.8498512728777,2093.298730105995,1066.6666666666667,2160L 1920 2160 L 1920 -1080 Z" fill="url(&quot;#SvgjsLinearGradient1093&quot;)"/><path d="M1280,-1080C1288.4129504696336,-1002.8433573072197,1324.796795558834,-760.881096458878,1330.4777028178019,-617.060143843318C1336.1586100767697,-473.23919122775794,1317.8846513430367,-367.03659434561473,1314.0854435538067,-217.07428430664007C1310.2862357645768,-67.11197426766537,1311.6721492630263,118.58588390026952,1307.6824560824225,282.7137163905302C1303.6927629018187,446.8415488807908,1301.0466771618042,613.8066340291426,1290.147284470184,767.692710634924C1279.247891778564,921.5787872407053,1240.5148916958835,1053.123722319288,1242.2860999327024,1206.0301760252182C1244.0573081695213,1358.9366297311485,1294.488883879881,1526.1364622080416,1300.7745338910972,1685.1314328705053C1307.0601839023134,1844.1264035329689,1283.462422315183,2080.855238811751,1280,2160L 1920 2160 L 1920 -1080 Z" fill="url(&quot;#SvgjsLinearGradient1094&quot;)"/><path d="M1493.3333333333333,-1080C1494.5154594696833,-948.8093850153194,1500.1153388736295,-560.693350595435,1500.426090151433,-292.8563100919167C1500.7368414292366,-25.01926958839846,1499.705811606656,257.0394916574955,1495.197841000154,527.0222430211095C1490.6898703936522,797.0049943847234,1473.689017790225,1054.8772385932857,1473.3782665124215,1327.0401980897675C1473.067515234618,1599.2031575862493,1490.0074888631814,2021.1733663482946,1493.3333333333333,2160L 1920 2160 L 1920 -1080 Z" fill="url(&quot;#SvgjsLinearGradient1095&quot;)"/><path d="M1706.6666666666665,-1080C1713.8512281374208,-950.1291997673983,1745.3926035853901,-579.2872430418374,1749.7740354911916,-300.7751986043896C1754.1554673969931,-22.26315416694166,1736.8042025595,315.1895782455265,1732.9552581014748,591.0722666246875C1729.1063136434495,866.9549550038485,1731.0618006488412,1093.0329761080243,1726.6803687430397,1354.5209316705764C1722.2989368372382,1616.0088872331285,1710.0022836793953,2025.7534886117628,1706.6666666666665,2160L 1920 2160 L 1920 -1080 Z" fill="url(&quot;#SvgjsLinearGradient1096&quot;)"/></g></g><defs><linearGradient x1="0.1" y1="0" x2="0" y2="1" id="SvgjsLinearGradient1088"><stop stop-color="#f7d7b5" offset="0"/><stop stop-color="#f7ccb5" offset="0"/></linearGradient><linearGradient x1="0.1" y1="0" x2="0" y2="1" id="SvgjsLinearGradient1089"><stop stop-color="#f8dbbc" offset="0"/><stop stop-color="#f8d1bc" offset="0.1111111111111111"/></linearGradient><linearGradient x1="0.1" y1="0" x2="0" y2="1" id="SvgjsLinearGradient1090"><stop stop-color="#f8dec3" offset="0"/><stop stop-color="#f8d5c3" offset="0.2222222222222222"/></linearGradient><linearGradient x1="0.1" y1="0" x2="0" y2="1" id="SvgjsLinearGradient1091"><stop stop-color="#f9e2ca" offset="0"/><stop stop-color="#f9daca" offset="0.3333333333333333"/></linearGradient><linearGradient x1="0.1" y1="0" x2="0" y2="1" id="SvgjsLinearGradient1092"><stop stop-color="#fae6d1" offset="0"/><stop stop-color="#fadfd1" offset="0.4444444444444444"/></linearGradient><linearGradient x1="0.1" y1="0" x2="0" y2="1" id="SvgjsLinearGradient1093"><stop stop-color="#fbead7" offset="0"/><stop stop-color="#fbe4d7" offset="0.5555555555555556"/></linearGradient><linearGradient x1="0.1" y1="0" x2="0" y2="1" id="SvgjsLinearGradient1094"><stop stop-color="#fbedde" offset="0"/><stop stop-color="#fbe8de" offset="0.6666666666666666"/></linearGradient><linearGradient x1="0.1" y1="0" x2="0" y2="1" id="SvgjsLinearGradient1095"><stop stop-color="#fcf1e5" offset="0"/><stop stop-color="#fcede5" offset="0.7777777777777778"/></linearGradient><linearGradient x1="0.1" y1="0" x2="0" y2="1" id="SvgjsLinearGradient1096"><stop stop-color="#fdf5ec" offset="0"/><stop stop-color="#fdf2ec" offset="0.8888888888888888"/></linearGradient><clipPath id="SvgjsClipPath1097"><rect width="1920" height="1080"/></clipPath></defs></svg>