<svg xmlns="http://www.w3.org/2000/svg" version="1.1" xmlns:xlink="http://www.w3.org/1999/xlink" xmlns:svgjs="http://svgjs.dev/svgjs" viewBox="0 0 1920 1080" style="overflow: hidden; height: 85vh;" class="overflow-hidden rounded-md drop-shadow-lg transition duration-300"><rect width="1920" height="1080" fill="#351c75"/><g clip-path="url(&quot;#SvgjsClipPath1065&quot;)"><g transform="matrix(7.04171909509728e-17,1.15,-1.15,7.04171909509728e-17,1563.9284706115723,-544.367741203308)"><path d="M0,-1080C8.979065594642913,-1013.0246430404144,49.52639563982964,-839.8422141170552,53.87439356785748,-678.1478582424866C58.222391495885326,-516.453502367918,33.197256462252355,-284.6692246463577,26.08798756816705,-109.83386475258865C18.978718674081748,65.00149514118038,19.33268486099621,225.70556956288712,11.21878020334566,370.8643011201277C3.1048755456951085,516.0230326773683,-16.038381444405193,609.6069769894361,-22.595440377736253,761.1185245908549C-29.152499311067313,912.6300721922737,-41.60544643150105,1127.5343706741548,-28.123573396640694,1279.9335867286402C-14.641700361780337,1432.3328027831255,53.60853559865244,1528.836085372541,58.29579783142589,1675.5138209177676C62.983060064199336,1822.1915564629942,9.715966305237648,2079.2523034862947,0,2160L 1920 2160 L 1920 -1080 Z" fill="url(&quot;#SvgjsLinearGradient1063&quot;)"/><path d="M960,-1080C969.4740447444148,-971.4984203096642,1023.7854194993178,-647.3987687560153,1016.8442684664888,-428.9905218579852C1009.9031174336598,-210.58227495995504,917.3935287697386,15.690710306732115,918.3530938030261,230.44948138818094C919.3126588363136,445.20825246962977,1018.5792092143345,647.7349586283494,1022.6016586662138,859.5621046307078C1026.624108118093,1071.3892506330662,952.9214002920044,1284.6727081741162,942.4877905143021,1501.4123574023315C932.0541807365998,1718.1520066305468,957.0812984190503,2050.2353929003884,960,2160L 1920 2160 L 1920 -1080 Z" fill="url(&quot;#SvgjsLinearGradient1064&quot;)"/></g></g><defs><linearGradient x1="0.1" y1="0" x2="0" y2="1" id="SvgjsLinearGradient1063"><stop stop-color="#351c75" offset="0"/><stop stop-color="#261c75" offset="0"/></linearGradient><linearGradient x1="0.1" y1="0" x2="0" y2="1" id="SvgjsLinearGradient1064"><stop stop-color="#9c81e1" offset="0"/><stop stop-color="#8c81e1" offset="0.5"/></linearGradient><clipPath id="SvgjsClipPath1065"><rect width="1920" height="1080"/></clipPath></defs></svg>