<svg xmlns="http://www.w3.org/2000/svg" version="1.1" xmlns:xlink="http://www.w3.org/1999/xlink" xmlns:svgjs="http://svgjs.dev/svgjs" viewBox="0 0 1920 1080" style="overflow: hidden; height: 85vh;" class="overflow-hidden rounded-md drop-shadow-lg transition duration-300"><rect width="1920" height="1080" fill="#4d2d19"/><g clip-path="url(&quot;#SvgjsClipPath1062&quot;)"><g transform="matrix(1.15,0,0,1.15,-138.84293518066397,-81)"><path d="M0,-1080C6.821874036780353,-989.8055999395561,51.36912488361122,-715.4149416425678,40.93124422068212,-538.8335996373366C30.493363557753014,-362.2522576321055,-46.528585469854974,-205.65762187369523,-62.62728397757462,-20.51194796861293C-78.72598248529427,164.63372593646938,-58.35233180160941,393.35227834903867,-55.66094682563579,572.0404437931572C-52.96956184966217,750.7286092372758,-51.738999102917035,878.6108270717535,-46.478974121732904,1051.6170446960987C-41.21894914054877,1224.623262320444,-31.84729262548649,1425.347256988578,-24.100796938531005,1610.0777495392283C-16.35430125157552,1794.8082420898786,-4.016799489755168,2068.3462915898713,0,2160L 1920 2160 L 1920 -1080 Z" fill="url(&quot;#SvgjsLinearGradient1058&quot;)"/><path d="M480,-1080C487.62215541275015,-995.3167992532176,516.8452805992389,-722.6587652482399,525.7329324765008,-571.9007955193053C534.6205843537626,-421.14282579037086,550.6174552389216,-318.2132842630171,533.3259112635715,-175.45218162639307C516.0343672882213,-32.69107898976904,426.14490833015105,121.79784351201707,421.9836686243997,284.6658203004387C417.8224289186483,447.5337970888604,507.21364573611874,637.4286125532241,508.35847302906336,801.7556791041369C509.503300322008,966.0827456550497,442.8152080089024,1127.8712157683017,428.8526323820674,1270.6282196059158C414.89005675523237,1413.3852234435299,416.05845799839767,1510.0690720641405,424.58301926805314,1658.2977021298213C433.1075805377086,1806.5263321955022,470.76383654467554,2076.38295035497,480,2160L 1920 2160 L 1920 -1080 Z" fill="url(&quot;#SvgjsLinearGradient1059&quot;)"/><path d="M960,-1080C954.1278085134152,-969.7127839422104,929.8808701529852,-641.3677071980497,924.7668510804908,-418.27670365326276C919.6528320079965,-195.18570010847577,915.1546889106012,34.87189862852506,929.3158855650343,258.5460212687219C943.4770822194673,482.22014390891877,1005.777036567599,715.6726980664088,1009.7340310070894,923.7680321879184C1013.6910254465797,1131.8633663094279,961.346857369825,1301.079364695766,953.0578522019767,1507.1180259977796C944.7688470341285,1713.1566872997932,958.8429753669961,2051.186337666297,960,2160L 1920 2160 L 1920 -1080 Z" fill="url(&quot;#SvgjsLinearGradient1060&quot;)"/><path d="M1440,-1080C1433.800975117306,-987.9634988594289,1404.7686528991892,-707.4062946320141,1402.8058507038368,-527.7809931565738C1400.8430485084843,-348.1556916811335,1414.4261883514346,-177.7992697700216,1428.2231868278855,-2.248191147357801C1442.0201853043363,173.302887475306,1492.2917475199913,349.33461483386066,1485.587841562542,525.525478579409C1478.8839356050928,701.7163423249573,1401.5640170351355,877.5470527416088,1387.9997510831902,1054.8969913259323C1374.4354851312448,1232.2469299102556,1395.5355376980683,1405.4412753063384,1404.20224585087,1589.6251100853497C1412.8689540036717,1773.808944864361,1434.0337076418116,2064.937518347558,1440,2160L 1920 2160 L 1920 -1080 Z" fill="url(&quot;#SvgjsLinearGradient1061&quot;)"/></g></g><defs><linearGradient x1="0.1" y1="0" x2="0" y2="1" id="SvgjsLinearGradient1058"><stop stop-color="#4d2d19" offset="0"/><stop stop-color="#4d2419" offset="0"/></linearGradient><linearGradient x1="0.1" y1="0" x2="0" y2="1" id="SvgjsLinearGradient1059"><stop stop-color="#995a32" offset="0"/><stop stop-color="#994932" offset="0.25"/></linearGradient><linearGradient x1="0.1" y1="0" x2="0" y2="1" id="SvgjsLinearGradient1060"><stop stop-color="#cd8c64" offset="0"/><stop stop-color="#cd7a64" offset="0.5"/></linearGradient><linearGradient x1="0.1" y1="0" x2="0" y2="1" id="SvgjsLinearGradient1061"><stop stop-color="#e6c5b1" offset="0"/><stop stop-color="#e6bcb1" offset="0.75"/></linearGradient><clipPath id="SvgjsClipPath1062"><rect width="1920" height="1080"/></clipPath></defs></svg>