<svg xmlns="http://www.w3.org/2000/svg" version="1.1" xmlns:xlink="http://www.w3.org/1999/xlink" xmlns:svgjs="http://svgjs.dev/svgjs" viewBox="0 0 1920 1080" style="overflow: hidden; height: 85vh;" class="overflow-hidden rounded-md drop-shadow-lg transition duration-300"><rect width="1920" height="1080" fill="#dfdaff"/><g clip-path="url(&quot;#SvgjsClipPath1255&quot;)"><g transform="matrix(0.12020773275780147,1.1437001796735142,-1.1437001796735142,0.12020773275780147,1435.3416506828744,-587.9511271209055)"><path d="M0,-1080C4.286623740899027,-980.1121873487633,32.91617793215854,-650.84203337428,25.71974244539416,-480.6731240925797C18.523306958629778,-310.5042148108794,-29.762073801421117,-228.92040320073545,-43.17861292058629,-58.986544309798234C-56.59515203975146,110.94731458113898,-68.91069830676061,338.97306791541416,-54.77949226959686,538.9300292530436C-40.6482862324331,738.886990590673,22.340697709627154,954.3750855905315,41.60862330239624,1140.7552237159782C60.87654889516533,1327.1353618414248,67.76283183741702,1487.3367286250532,60.82806128701765,1657.2108580057236C53.893290736618276,1827.084987386394,10.138010214502941,2076.2018096676206,0,2160L 1920 2160 L 1920 -1080 Z" fill="url(&quot;#SvgjsLinearGradient1253&quot;)"/><path d="M960,-1080C953.6344565484121,-990.6210688978365,932.3231392018971,-733.4675952140663,921.8067392904725,-543.726413387019C911.2903393790479,-353.9852315599717,890.5950105797548,-124.62265268188071,896.901600531452,58.44709096228371C903.2081904831492,241.51683460644813,959.3297516655039,388.3422096223251,959.6462790006556,554.6920484779674C959.9628063358073,721.0418873336098,896.9676417388214,877.8941155367213,898.800764542362,1056.5461240961376C900.6338873459026,1235.198132655554,960.445143245626,1442.6951205171551,970.645015821899,1626.6040998344656C980.8448883981721,1810.513079151776,961.7741693036498,2071.1006833057445,960,2160L 1920 2160 L 1920 -1080 Z" fill="url(&quot;#SvgjsLinearGradient1254&quot;)"/></g></g><defs><linearGradient x1="0.1" y1="0" x2="0" y2="1" id="SvgjsLinearGradient1253"><stop stop-color="#dfdaff" offset="0"/><stop stop-color="#dadbff" offset="0"/></linearGradient><linearGradient x1="0.1" y1="0" x2="0" y2="1" id="SvgjsLinearGradient1254"><stop stop-color="#faf9ff" offset="0"/><stop stop-color="#f9f9ff" offset="0.5"/></linearGradient><clipPath id="SvgjsClipPath1255"><rect width="1920" height="1080"/></clipPath></defs></svg>